<svg width="164" height="20" viewBox="0 0 164 20" fill="none" xmlns="http://www.w3.org/2000/svg">
<path d="M58.4634 1.86157L50.2144 17.5525H47.6591L39.4102 1.86157H41.9655L48.9368 15.1316L55.908 1.86157H58.4634Z" fill="white"/>
<path d="M78.2084 13.0694C78.2084 13.8913 77.9544 14.6459 77.4463 15.3334C76.9532 16.0059 76.2807 16.5438 75.4289 16.9473C74.5771 17.3508 73.6356 17.5525 72.6045 17.5525H60.0742V15.311H72.6045C73.2172 15.311 73.7776 15.2138 74.2856 15.0196C74.7938 14.8104 75.1972 14.5339 75.4962 14.1902C75.8099 13.8465 75.9669 13.4729 75.9669 13.0694V11.9486H65.6781C64.647 11.9486 63.7055 11.6946 62.8537 11.1865C62.0169 10.6784 61.3444 10.0059 60.8363 9.16906C60.3282 8.31728 60.0742 7.37582 60.0742 6.3447V1.86157H62.3157V6.3447C62.3157 6.95739 62.4651 7.52526 62.7641 8.04829C63.0629 8.55637 63.4665 8.95985 63.9745 9.25873C64.4976 9.5576 65.0654 9.70704 65.6781 9.70704H75.9669V1.86157H78.2084V13.0694Z" fill="white"/>
<path d="M100.585 9.70704C100.585 10.7979 100.413 11.8216 100.07 12.778C99.7261 13.7194 99.2329 14.5488 98.5904 15.2662C97.9627 15.9834 97.2081 16.5438 96.3264 16.9473C95.4447 17.3508 94.4658 17.5525 93.3899 17.5525H88.167C87.0761 17.5525 86.0898 17.3508 85.2083 16.9473C84.3266 16.5438 83.5644 15.9834 82.9218 15.2662C82.2942 14.5488 81.8084 13.7194 81.4648 12.778C81.1211 11.8216 80.9492 10.7979 80.9492 9.70704C80.9492 8.63109 81.1211 7.62238 81.4648 6.68093C81.8084 5.72453 82.2942 4.88768 82.9218 4.17039C83.5644 3.43814 84.3266 2.87027 85.2083 2.46679C86.0898 2.06331 87.0761 1.86157 88.167 1.86157H93.3899C94.4658 1.86157 95.4447 2.06331 96.3264 2.46679C97.2081 2.87027 97.9627 3.43814 98.5904 4.17039C99.2329 4.88768 99.7261 5.72453 100.07 6.68093C100.413 7.62238 100.585 8.63109 100.585 9.70704ZM98.3438 9.70704C98.3438 8.67592 98.142 7.73447 97.7386 6.88267C97.35 6.03087 96.7822 5.35841 96.035 4.86527C95.3027 4.35717 94.421 4.10314 93.3899 4.10314H88.167C87.1359 4.10314 86.2468 4.35717 85.4996 4.86527C84.7674 5.35841 84.1995 6.03087 83.7961 6.88267C83.3925 7.73447 83.1909 8.67592 83.1909 9.70704C83.1909 10.7382 83.3925 11.6796 83.7961 12.5314C84.1995 13.3683 84.7674 14.0407 85.4996 14.5488C86.2468 15.0569 87.1359 15.311 88.167 15.311H93.3899C94.421 15.311 95.3027 15.0569 96.035 14.5488C96.7822 14.0407 97.35 13.3683 97.7386 12.5314C98.142 11.6796 98.3438 10.7382 98.3438 9.70704Z" fill="white"/>
<path d="M105.691 17.5525H103.449V1.86157H104.57C105.661 1.86157 106.841 2.07078 108.112 2.4892C109.397 2.90764 110.682 3.49792 111.967 4.26005C113.252 5.02217 114.463 5.93375 115.599 6.99475C116.749 8.04081 117.735 9.20643 118.557 10.4916V1.86157H120.799V17.5525H118.557C118.557 16.1776 118.273 14.8626 117.706 13.6074C117.153 12.3371 116.413 11.1715 115.487 10.1105C114.56 9.03457 113.529 8.08564 112.393 7.26374C111.272 6.42688 110.129 5.74695 108.963 5.22391C107.798 4.68594 106.707 4.34223 105.691 4.1928V17.5525Z" fill="white"/>
<path fill-rule="evenodd" clip-rule="evenodd" d="M157.929 2.16528C159.093 2.16528 160.042 2.27827 160.757 2.51684C161.501 2.74574 162.056 3.16583 162.392 3.7864L162.455 3.903C162.754 4.49976 162.892 5.28824 162.892 6.24452C162.892 7.31072 162.691 8.17166 162.251 8.78816V8.78844C162.004 9.14673 161.668 9.41185 161.258 9.59151C161.856 9.80053 162.322 10.1436 162.637 10.6357C163.098 11.3594 163.313 12.3336 163.313 13.5283C163.313 14.544 163.163 15.3691 162.838 15.9762C162.52 16.5996 161.984 17.0311 161.265 17.2765L161.26 17.2775C160.573 17.5016 159.669 17.6076 158.56 17.6076C157.829 17.6076 157.201 17.6009 156.678 17.5866C156.158 17.5866 155.677 17.5723 155.237 17.5439C154.799 17.5157 154.327 17.4806 153.82 17.4384L153.555 17.4163V2.3688L153.807 2.33597C154.247 2.27929 154.66 2.24385 155.046 2.22924C155.432 2.20068 155.855 2.18622 156.308 2.18622C156.759 2.17226 157.3 2.16528 157.929 2.16528ZM154.66 16.4984C154.947 16.5064 155.315 16.5148 155.766 16.5228L156.388 16.5319C157.038 16.54 157.762 16.5439 158.56 16.5439C159.513 16.5439 160.246 16.4606 160.768 16.3046C161.28 16.1422 161.629 15.8579 161.841 15.456C162.062 15.0397 162.186 14.407 162.186 13.5283C162.186 12.5794 162.054 11.8892 161.817 11.4294V11.4266C161.588 10.966 161.213 10.6425 160.675 10.4549C160.114 10.2588 159.34 10.148 158.345 10.1341H154.66V16.4984ZM162.468 13.9003C162.468 13.8855 162.47 13.8706 162.47 13.8556V13.8457C162.47 13.8641 162.47 13.8823 162.468 13.9003ZM162.292 11.8685C162.292 11.8675 162.292 11.8664 162.292 11.8654C162.288 11.8494 162.283 11.8335 162.277 11.8178C162.277 11.8127 162.275 11.8076 162.272 11.8025C162.279 11.8242 162.285 11.8463 162.292 11.8685ZM162.153 11.4623C162.173 11.5109 162.194 11.5609 162.212 11.6129C162.194 11.5665 162.177 11.5216 162.16 11.4778C162.158 11.4726 162.155 11.4675 162.153 11.4623ZM157.929 3.22931C157.313 3.22931 156.748 3.23631 156.232 3.25027H156.223C155.72 3.25027 155.289 3.25736 154.929 3.27121H154.918C154.825 3.27121 154.739 3.27166 154.66 3.27264V9.11255H158.345C159.245 9.09872 159.936 9.00845 160.43 8.85214L160.432 8.85157C160.918 8.70261 161.243 8.43888 161.44 8.06634C161.648 7.66208 161.765 7.06359 161.765 6.24452C161.765 5.36748 161.633 4.73739 161.401 4.32281C161.178 3.9231 160.814 3.64324 160.272 3.49228L160.27 3.49144L160.265 3.49059C159.702 3.31978 158.926 3.22931 157.929 3.22931ZM161.585 8.38365C161.592 8.37708 161.596 8.37078 161.601 8.36412L161.603 8.35931C161.598 8.36757 161.592 8.37552 161.585 8.38365ZM162.047 6.59638C162.047 6.58145 162.049 6.56645 162.049 6.55139V6.54204C162.049 6.56025 162.047 6.57837 162.047 6.59638ZM157.476 2.94059C157.326 2.94148 157.181 2.94302 157.038 2.94484C157.181 2.94308 157.326 2.94174 157.474 2.94087C157.623 2.94 157.775 2.93946 157.929 2.93946C157.775 2.93946 157.623 2.93972 157.476 2.94059ZM160.913 2.87888C160.953 2.89405 160.989 2.90977 161.026 2.92615C160.952 2.89271 160.874 2.86169 160.792 2.8333L160.913 2.87888Z" fill="white"/>
<path d="M131.243 14.9602C131.243 15.3976 131.38 15.735 131.642 15.9973C131.904 16.2598 132.242 16.3965 132.679 16.3965H138.695V17.3428L138.418 17.355C137.447 17.3972 136.468 17.4252 135.483 17.4393H132.574C131.886 17.4393 131.298 17.2095 130.832 16.744C130.366 16.2784 130.137 15.6904 130.137 15.0025V2.33374H131.243V14.9602Z" fill="white"/>
<path fill-rule="evenodd" clip-rule="evenodd" d="M145.79 2.33374C145.895 2.33374 146.011 2.35444 146.115 2.42206C146.236 2.49224 146.309 2.60269 146.341 2.72552L151.699 17.4393H150.513L148.597 12.1343H142.078L140.163 17.4393H138.977L144.339 2.7139L144.343 2.70541C144.382 2.60616 144.446 2.4976 144.556 2.42462L144.571 2.41441L144.587 2.4065C144.679 2.3607 144.779 2.33376 144.885 2.33374H145.79ZM145.2 3.47902L144.99 4.06838C144.955 4.16657 144.92 4.26484 144.885 4.36304L144.884 4.36417L142.455 11.0915H148.221L145.792 4.36417L145.791 4.36304L145.475 3.47902C145.463 3.44491 145.451 3.41068 145.439 3.37657H145.237C145.225 3.41068 145.212 3.44491 145.2 3.47902Z" fill="white"/>
<mask id="mask0_292_2" style="mask-type:alpha" maskUnits="userSpaceOnUse" x="0" y="0" width="34" height="20">
<path d="M16.5153 19.2711C25.6365 19.2711 33.0306 14.9571 33.0306 9.63555C33.0306 4.31398 25.6365 0 16.5153 0C7.39416 0 0 4.31398 0 9.63555C0 14.9571 7.39416 19.2711 16.5153 19.2711Z" fill="#D9D9D9"/>
</mask>
<g mask="url(#mask0_292_2)">
<path d="M17.0129 -0.177246C15.6488 -0.177246 14.4085 0.0743786 13.2961 0.581901C12.1875 1.0877 11.2284 1.80008 10.4207 2.71777L10.4205 2.71806C10.3324 2.81849 10.2465 2.9208 10.1628 3.02495C9.17634 3.10401 8.31747 3.39615 7.58029 3.8959L7.57946 3.89646C6.71762 4.47516 6.04721 5.26495 5.56881 6.27187C5.08991 7.27988 4.84879 8.39704 4.84879 9.62669C4.84881 10.8558 5.08974 11.9724 5.56826 12.9801L5.61366 13.0722C6.0886 14.0182 6.74424 14.7787 7.58114 15.3578C8.31208 15.8533 9.16269 16.1441 10.1386 16.2259C10.2299 16.3403 10.3239 16.4525 10.4205 16.5625L10.4222 16.5645C11.2299 17.4634 12.1886 18.166 13.2961 18.6714C14.4085 19.1788 15.6488 19.4304 17.0129 19.4304H10.7241C9.35996 19.4304 8.11968 19.1788 7.0073 18.6714C5.89974 18.166 4.9411 17.4634 4.13339 16.5645L4.13172 16.5625C3.34387 15.6649 2.73525 14.6278 2.30526 13.4536L2.30485 13.4526C1.87449 12.2587 1.66017 10.9828 1.66016 9.62669C1.66016 8.28848 1.87465 7.03041 2.30526 5.85443C2.73507 4.66237 3.3436 3.61605 4.13172 2.71806L4.13186 2.71777C4.93958 1.8001 5.89872 1.0877 7.0073 0.581901C8.11968 0.0743873 9.35996 -0.177238 10.7241 -0.177246H17.0129ZM7.09912 18.47C7.13252 18.4853 7.16609 18.5002 7.19975 18.5149C7.16608 18.5002 7.13253 18.4852 7.09912 18.4699V18.47ZM13.3879 18.4699C13.4881 18.5157 13.5894 18.5592 13.6918 18.6007C13.5894 18.5592 13.4881 18.5158 13.3879 18.47V18.4699ZM23.4115 3.00316C23.5849 3.00316 23.7545 3.00931 23.9202 3.02132C24.6004 3.84906 25.1315 4.79392 25.5139 5.85443L25.5537 5.96484C25.9578 7.10906 26.159 8.33027 26.159 9.62669C26.159 10.9828 25.9446 12.2587 25.5143 13.4526L25.5139 13.4536C25.1359 14.4857 24.6127 15.4116 23.9444 16.2301C23.771 16.2432 23.5934 16.2501 23.4115 16.2501H17.1226C18.3481 16.2501 19.3827 15.9496 20.2372 15.3584L20.2389 15.3572C21.1204 14.7596 21.79 13.9695 22.2496 12.9829L22.2503 12.9814C22.7293 11.9734 22.9704 10.8563 22.9704 9.62669C22.9704 8.39703 22.7293 7.27989 22.2503 6.27187L22.2497 6.27033L22.249 6.26894C21.7895 5.26458 21.1204 4.47605 20.2413 3.89759L20.2372 3.89478C19.3827 3.30367 18.3481 3.00316 17.1226 3.00316H23.4115ZM2.23286 12.4715C2.31262 12.7788 2.40598 13.0809 2.51294 13.3776L2.51307 13.3774C2.42752 13.1401 2.35066 12.8993 2.28248 12.6552C2.26545 12.5942 2.24895 12.533 2.23301 12.4715H2.23286ZM1.88236 9.78851C1.88165 9.73466 1.88139 9.68067 1.88139 9.62654C1.88139 9.66817 1.88153 9.70986 1.88195 9.75134C1.88206 9.76374 1.8822 9.77614 1.88236 9.78851ZM23.1736 9.04432C23.1759 9.0826 23.1782 9.12098 23.1801 9.15948C23.1821 9.19799 23.1838 9.23662 23.1852 9.27534C23.1822 9.1979 23.1783 9.1209 23.1736 9.04432ZM2.51294 5.93045C2.48662 6.00229 2.46115 6.07446 2.43649 6.14693V6.14707C2.46119 6.07454 2.48662 6.00234 2.51294 5.93045ZM24.8437 4.85015C24.8653 4.89302 24.8866 4.93608 24.9075 4.97942L24.8579 4.87795C24.8533 4.86865 24.8484 4.85943 24.8437 4.85015ZM24.7206 4.61326C24.7145 4.60188 24.7086 4.59038 24.7025 4.57903C24.6997 4.57396 24.6969 4.56898 24.6942 4.56393C24.703 4.58032 24.7118 4.5968 24.7206 4.61326ZM24.6754 4.52983C24.6664 4.51357 24.6575 4.49724 24.6485 4.48106C24.6442 4.4733 24.6398 4.4656 24.6353 4.45786C24.6488 4.48176 24.6621 4.50577 24.6754 4.52983ZM23.9172 3.37225C24.0596 3.55679 24.1948 3.74712 24.3229 3.94314C24.2756 3.87071 24.2275 3.79891 24.1782 3.72806C24.1362 3.66758 24.0934 3.60766 24.05 3.54833C24.0065 3.48901 23.9622 3.43042 23.9172 3.37225ZM23.4115 2.78178C23.4508 2.78178 23.4902 2.78211 23.5292 2.78275L23.4115 2.78192H17.1396C17.1339 2.78191 17.1283 2.78178 17.1226 2.78178H23.4115ZM13.1871 0.877902C13.1151 0.913038 13.0437 0.949086 12.973 0.986071C13.0089 0.967316 13.0448 0.948733 13.081 0.930448L13.1871 0.877902ZM6.99821 0.829965C6.99589 0.831059 6.99355 0.832084 6.99123 0.83318C7.02701 0.816238 7.06301 0.799626 7.09912 0.783148L6.99821 0.829965ZM4.29802 2.86395C4.27401 2.8913 4.25014 2.91877 4.22647 2.94641C4.21482 2.96001 4.20323 2.97368 4.19166 2.98736C4.22673 2.94588 4.2622 2.90477 4.29802 2.86395Z" fill="white"/>
<path d="M16.0212 -0.177246C17.3853 -0.177246 18.6257 0.0743792 19.7381 0.581901C20.8466 1.0877 21.8057 1.80008 22.6134 2.71777L22.6135 2.71806C22.7018 2.81852 22.7876 2.92091 22.8713 3.0251C23.8577 3.10415 24.7165 3.39616 25.4537 3.8959L25.4545 3.89646C26.3163 4.47516 26.9868 5.26493 27.4652 6.27187C27.9441 7.27989 28.1852 8.39703 28.1852 9.62669C28.1852 10.8558 27.9442 11.9724 27.4658 12.9801L27.4203 13.0722C26.9454 14.0182 26.2897 14.7787 25.4528 15.3578C24.722 15.8531 23.8713 16.1441 22.8955 16.2259C22.8042 16.3403 22.7103 16.4525 22.6135 16.5625L22.612 16.5645C21.8043 17.4634 20.8456 18.166 19.7381 18.6714C18.6257 19.1788 17.3853 19.4304 16.0212 19.4304H22.3099C23.674 19.4304 24.9143 19.1788 26.0267 18.6714C27.1342 18.166 28.0929 17.4634 28.9006 16.5645L28.9023 16.5625C29.6901 15.6649 30.2988 14.6278 30.7287 13.4536L30.7291 13.4526C31.1596 12.2587 31.3738 10.9828 31.3738 9.62669C31.3738 8.28846 31.1594 7.03042 30.7287 5.85443C30.2989 4.66235 29.6904 3.61606 28.9023 2.71806L28.9022 2.71777C28.0943 1.80008 27.1353 1.0877 26.0267 0.581901C24.9143 0.0743872 23.674 -0.177246 22.3099 -0.177246H16.0212ZM19.6462 18.4699C19.546 18.5157 19.4447 18.5592 19.3424 18.6007C19.4447 18.5592 19.546 18.5158 19.6462 18.47C19.6692 18.4596 19.6921 18.4487 19.7152 18.438C19.6921 18.4487 19.6692 18.4594 19.6462 18.4699ZM20.5229 18.0088C20.4605 18.0463 20.3975 18.083 20.3341 18.119C20.3976 18.0829 20.4605 18.0463 20.5229 18.0088ZM9.6227 3.00316C9.55309 3.00316 9.48412 3.00414 9.41574 3.00609C9.40518 3.01835 9.3945 3.03052 9.38401 3.04284C9.38767 3.03853 9.39124 3.03414 9.3949 3.02985C9.40171 3.02189 9.40863 3.01402 9.41545 3.00609C9.31352 3.00898 9.21294 3.01413 9.11372 3.02132C8.43363 3.84906 7.90248 4.79393 7.52011 5.85443L7.48026 5.96484C7.0762 7.10905 6.875 8.33028 6.875 9.62669C6.875 10.9828 7.08932 12.2587 7.51968 13.4526L7.52011 13.4536C7.89806 14.4857 8.42128 15.4115 9.08955 16.2299C9.26308 16.2431 9.44078 16.2501 9.6227 16.2501H15.9113C14.6859 16.2501 13.6513 15.9496 12.7968 15.3584L12.7951 15.3572C11.9136 14.7596 11.244 13.9695 10.7845 12.9829L10.7837 12.9814C10.3047 11.9734 10.0636 10.8563 10.0636 9.62669C10.0636 8.39704 10.3048 7.27989 10.7837 6.27187L10.7843 6.27033L10.785 6.26894C11.2446 5.26459 11.9136 4.47603 12.7926 3.89759L12.7968 3.89478C13.6513 3.30367 14.6859 3.00316 15.9113 3.00316H9.6227ZM12.8684 15.6698C12.8594 15.6642 12.8503 15.6588 12.8414 15.6532L12.8386 15.6513C12.8485 15.6576 12.8585 15.6636 12.8684 15.6698ZM7.5317 12.7749C7.59104 12.9781 7.65639 13.179 7.72791 13.3774L7.72777 13.3776C7.65623 13.1791 7.591 12.9782 7.5317 12.7749ZM30.687 12.8767C30.653 12.9891 30.617 13.1007 30.5793 13.2117L30.6345 13.0447C30.6525 12.9888 30.67 12.9329 30.687 12.8767ZM28.4036 9.86147C28.403 9.88597 28.4021 9.91043 28.4014 9.93484C28.4023 9.90921 28.403 9.88355 28.4036 9.85784V9.86147ZM31.1526 9.62669L31.152 9.75134C31.1518 9.76878 31.1516 9.7862 31.1514 9.80361C31.1521 9.74475 31.1526 9.68586 31.1526 9.62669ZM7.09762 9.79494C7.09742 9.78041 7.09693 9.76589 7.09679 9.75134C7.09637 9.70986 7.09623 9.66832 7.09623 9.62669C7.09623 9.68297 7.09686 9.73896 7.09762 9.79494ZM7.45694 6.78924C7.46517 6.75843 7.47315 6.72756 7.48167 6.69686C7.48593 6.68149 7.49061 6.66624 7.49495 6.65088C7.48195 6.69688 7.46929 6.743 7.45694 6.78924ZM7.72791 5.93045C7.66732 6.09591 7.61138 6.26316 7.55952 6.43203C7.56632 6.40986 7.57281 6.38761 7.57978 6.36551C7.60281 6.29233 7.62665 6.21947 7.65134 6.14693C7.67599 6.07446 7.70161 6.00229 7.72791 5.93045ZM8.44738 4.37232C8.46369 4.344 8.48009 4.31574 8.49671 4.28763C8.50024 4.28165 8.50391 4.27572 8.50747 4.26974C8.48725 4.30379 8.46718 4.33796 8.44738 4.37232ZM8.52424 4.24179C8.53417 4.22525 8.54399 4.20866 8.55401 4.19218C8.55731 4.18675 8.56075 4.1814 8.56407 4.17598C8.5507 4.19784 8.53742 4.21978 8.52424 4.24179ZM8.67182 4.00393C8.68176 3.98843 8.69155 3.97283 8.70158 3.95739L8.70914 3.94593C8.69657 3.96518 8.68424 3.98458 8.67182 4.00393ZM8.99158 3.53856C8.91835 3.63814 8.84707 3.73928 8.77789 3.8421L8.85587 3.72806C8.89793 3.66758 8.94069 3.60766 8.98416 3.54833C8.98658 3.54504 8.98916 3.54185 8.99158 3.53856ZM16.0212 2.78192L16.1392 2.78275C16.1057 2.78224 16.0719 2.78201 16.0381 2.78192H16.0212ZM9.61195 2.78178L9.61181 2.78192H15.8919C15.8984 2.7819 15.9049 2.78178 15.9115 2.78178H9.61195ZM7.36791 7.14842C7.37675 7.10973 7.38545 7.07107 7.39474 7.03256C7.39685 7.02383 7.39918 7.01515 7.40131 7.00642C7.38981 7.05362 7.37876 7.10096 7.36791 7.14842Z" fill="white"/>
</g>
</svg>
